G04 Layer_Physical_Order=2*
G04 Layer_Color=16711680*
%FSLAX24Y24*%
%MOIN*%
G70*
G01*
G75*
%ADD12C,0.0630*%
%ADD13R,0.0591X0.0591*%
%ADD14C,0.0591*%
G36*
X31350Y36550D02*
X10000D01*
Y50000D01*
X31350D01*
Y36550D01*
D02*
G37*
%LPC*%
G36*
X17345Y48645D02*
X16555D01*
Y47855D01*
X17345D01*
Y48645D01*
D02*
G37*
G36*
X23950Y48649D02*
X23847Y48635D01*
X23751Y48595D01*
X23668Y48532D01*
X23605Y48449D01*
X23565Y48353D01*
X23551Y48250D01*
X23565Y48147D01*
X23605Y48051D01*
X23668Y47968D01*
X23751Y47905D01*
X23847Y47865D01*
X23950Y47851D01*
X24053Y47865D01*
X24149Y47905D01*
X24232Y47968D01*
X24295Y48051D01*
X24335Y48147D01*
X24349Y48250D01*
X24335Y48353D01*
X24295Y48449D01*
X24232Y48532D01*
X24149Y48595D01*
X24053Y48635D01*
X23950Y48649D01*
D02*
G37*
G36*
X22950D02*
X22847Y48635D01*
X22751Y48595D01*
X22668Y48532D01*
X22605Y48449D01*
X22565Y48353D01*
X22551Y48250D01*
X22565Y48147D01*
X22605Y48051D01*
X22668Y47968D01*
X22751Y47905D01*
X22847Y47865D01*
X22950Y47851D01*
X23053Y47865D01*
X23149Y47905D01*
X23232Y47968D01*
X23295Y48051D01*
X23335Y48147D01*
X23349Y48250D01*
X23335Y48353D01*
X23295Y48449D01*
X23232Y48532D01*
X23149Y48595D01*
X23053Y48635D01*
X22950Y48649D01*
D02*
G37*
G36*
X21950D02*
X21847Y48635D01*
X21751Y48595D01*
X21668Y48532D01*
X21605Y48449D01*
X21565Y48353D01*
X21551Y48250D01*
X21565Y48147D01*
X21605Y48051D01*
X21668Y47968D01*
X21751Y47905D01*
X21847Y47865D01*
X21950Y47851D01*
X22053Y47865D01*
X22149Y47905D01*
X22232Y47968D01*
X22295Y48051D01*
X22335Y48147D01*
X22349Y48250D01*
X22335Y48353D01*
X22295Y48449D01*
X22232Y48532D01*
X22149Y48595D01*
X22053Y48635D01*
X21950Y48649D01*
D02*
G37*
G36*
X20950D02*
X20847Y48635D01*
X20751Y48595D01*
X20668Y48532D01*
X20605Y48449D01*
X20565Y48353D01*
X20551Y48250D01*
X20565Y48147D01*
X20605Y48051D01*
X20668Y47968D01*
X20751Y47905D01*
X20847Y47865D01*
X20950Y47851D01*
X21053Y47865D01*
X21149Y47905D01*
X21232Y47968D01*
X21295Y48051D01*
X21335Y48147D01*
X21349Y48250D01*
X21335Y48353D01*
X21295Y48449D01*
X21232Y48532D01*
X21149Y48595D01*
X21053Y48635D01*
X20950Y48649D01*
D02*
G37*
G36*
X19950D02*
X19847Y48635D01*
X19751Y48595D01*
X19668Y48532D01*
X19605Y48449D01*
X19565Y48353D01*
X19551Y48250D01*
X19565Y48147D01*
X19605Y48051D01*
X19668Y47968D01*
X19751Y47905D01*
X19847Y47865D01*
X19950Y47851D01*
X20053Y47865D01*
X20149Y47905D01*
X20232Y47968D01*
X20295Y48051D01*
X20335Y48147D01*
X20349Y48250D01*
X20335Y48353D01*
X20295Y48449D01*
X20232Y48532D01*
X20149Y48595D01*
X20053Y48635D01*
X19950Y48649D01*
D02*
G37*
G36*
X18950D02*
X18847Y48635D01*
X18751Y48595D01*
X18668Y48532D01*
X18605Y48449D01*
X18565Y48353D01*
X18551Y48250D01*
X18565Y48147D01*
X18605Y48051D01*
X18668Y47968D01*
X18751Y47905D01*
X18847Y47865D01*
X18950Y47851D01*
X19053Y47865D01*
X19149Y47905D01*
X19232Y47968D01*
X19295Y48051D01*
X19335Y48147D01*
X19349Y48250D01*
X19335Y48353D01*
X19295Y48449D01*
X19232Y48532D01*
X19149Y48595D01*
X19053Y48635D01*
X18950Y48649D01*
D02*
G37*
G36*
X17950D02*
X17847Y48635D01*
X17751Y48595D01*
X17668Y48532D01*
X17605Y48449D01*
X17565Y48353D01*
X17551Y48250D01*
X17565Y48147D01*
X17605Y48051D01*
X17668Y47968D01*
X17751Y47905D01*
X17847Y47865D01*
X17950Y47851D01*
X18053Y47865D01*
X18149Y47905D01*
X18232Y47968D01*
X18295Y48051D01*
X18335Y48147D01*
X18349Y48250D01*
X18335Y48353D01*
X18295Y48449D01*
X18232Y48532D01*
X18149Y48595D01*
X18053Y48635D01*
X17950Y48649D01*
D02*
G37*
G36*
X26949Y41169D02*
X26841Y41155D01*
X26740Y41113D01*
X26653Y41046D01*
X26587Y40960D01*
X26580Y40945D01*
X26530D01*
X26524Y40960D01*
X26458Y41046D01*
X26371Y41113D01*
X26270Y41155D01*
X26162Y41169D01*
X26053Y41155D01*
X25953Y41113D01*
X25866Y41046D01*
X25799Y40960D01*
X25758Y40859D01*
X25743Y40750D01*
X25758Y40642D01*
X25799Y40541D01*
X25866Y40454D01*
X25953Y40388D01*
X26053Y40346D01*
X26162Y40332D01*
X26270Y40346D01*
X26371Y40388D01*
X26458Y40454D01*
X26524Y40541D01*
X26530Y40556D01*
X26580D01*
X26587Y40541D01*
X26653Y40454D01*
X26740Y40388D01*
X26841Y40346D01*
X26949Y40332D01*
X27058Y40346D01*
X27158Y40388D01*
X27245Y40454D01*
X27312Y40541D01*
X27353Y40642D01*
X27368Y40750D01*
X27353Y40859D01*
X27312Y40960D01*
X27245Y41046D01*
X27158Y41113D01*
X27058Y41155D01*
X26949Y41169D01*
D02*
G37*
G36*
X21437D02*
X21329Y41155D01*
X21228Y41113D01*
X21141Y41046D01*
X21075Y40960D01*
X21069Y40945D01*
X21019D01*
X21012Y40960D01*
X20946Y41046D01*
X20859Y41113D01*
X20758Y41155D01*
X20650Y41169D01*
X20542Y41155D01*
X20441Y41113D01*
X20354Y41046D01*
X20288Y40960D01*
X20281Y40945D01*
X20231D01*
X20225Y40960D01*
X20159Y41046D01*
X20072Y41113D01*
X19971Y41155D01*
X19913Y41162D01*
Y40750D01*
Y40338D01*
X19971Y40346D01*
X20072Y40388D01*
X20159Y40454D01*
X20225Y40541D01*
X20231Y40556D01*
X20281D01*
X20288Y40541D01*
X20354Y40454D01*
X20441Y40388D01*
X20542Y40346D01*
X20650Y40332D01*
X20758Y40346D01*
X20859Y40388D01*
X20946Y40454D01*
X21012Y40541D01*
X21019Y40556D01*
X21069D01*
X21075Y40541D01*
X21141Y40454D01*
X21228Y40388D01*
X21329Y40346D01*
X21437Y40332D01*
X21546Y40346D01*
X21647Y40388D01*
X21733Y40454D01*
X21800Y40541D01*
X21842Y40642D01*
X21856Y40750D01*
X21842Y40859D01*
X21800Y40960D01*
X21733Y41046D01*
X21647Y41113D01*
X21546Y41155D01*
X21437Y41169D01*
D02*
G37*
G36*
X15138D02*
X15030Y41155D01*
X14929Y41113D01*
X14842Y41046D01*
X14776Y40960D01*
X14769Y40945D01*
X14719D01*
X14713Y40960D01*
X14647Y41046D01*
X14560Y41113D01*
X14459Y41155D01*
X14351Y41169D01*
X14242Y41155D01*
X14142Y41113D01*
X14055Y41046D01*
X13988Y40960D01*
X13946Y40859D01*
X13932Y40750D01*
X13946Y40642D01*
X13988Y40541D01*
X14055Y40454D01*
X14142Y40388D01*
X14242Y40346D01*
X14351Y40332D01*
X14459Y40346D01*
X14560Y40388D01*
X14647Y40454D01*
X14713Y40541D01*
X14719Y40556D01*
X14769D01*
X14776Y40541D01*
X14842Y40454D01*
X14929Y40388D01*
X15030Y40346D01*
X15138Y40332D01*
X15247Y40346D01*
X15347Y40388D01*
X15434Y40454D01*
X15501Y40541D01*
X15542Y40642D01*
X15557Y40750D01*
X15542Y40859D01*
X15501Y40960D01*
X15434Y41046D01*
X15347Y41113D01*
X15247Y41155D01*
X15138Y41169D01*
D02*
G37*
G36*
X19075D02*
X18967Y41155D01*
X18866Y41113D01*
X18779Y41046D01*
X18713Y40960D01*
X18671Y40859D01*
X18657Y40750D01*
X18671Y40642D01*
X18713Y40541D01*
X18779Y40454D01*
X18866Y40388D01*
X18967Y40346D01*
X19075Y40332D01*
X19184Y40346D01*
X19284Y40388D01*
X19371Y40454D01*
X19438Y40541D01*
X19444Y40556D01*
X19494D01*
X19500Y40541D01*
X19567Y40454D01*
X19653Y40388D01*
X19754Y40346D01*
X19813Y40338D01*
Y40750D01*
Y41162D01*
X19754Y41155D01*
X19653Y41113D01*
X19567Y41046D01*
X19500Y40960D01*
X19494Y40945D01*
X19444D01*
X19438Y40960D01*
X19371Y41046D01*
X19284Y41113D01*
X19184Y41155D01*
X19075Y41169D01*
D02*
G37*
G36*
X24587D02*
X24479Y41155D01*
X24378Y41113D01*
X24291Y41046D01*
X24225Y40960D01*
X24183Y40859D01*
X24168Y40750D01*
X24183Y40642D01*
X24225Y40541D01*
X24291Y40454D01*
X24378Y40388D01*
X24479Y40346D01*
X24587Y40332D01*
X24695Y40346D01*
X24796Y40388D01*
X24883Y40454D01*
X24949Y40541D01*
X24991Y40642D01*
X25006Y40750D01*
X24991Y40859D01*
X24949Y40960D01*
X24883Y41046D01*
X24796Y41113D01*
X24695Y41155D01*
X24587Y41169D01*
D02*
G37*
G36*
X16713D02*
X16605Y41155D01*
X16504Y41113D01*
X16417Y41046D01*
X16351Y40960D01*
X16309Y40859D01*
X16294Y40750D01*
X16309Y40642D01*
X16351Y40541D01*
X16417Y40454D01*
X16504Y40388D01*
X16605Y40346D01*
X16713Y40332D01*
X16821Y40346D01*
X16922Y40388D01*
X17009Y40454D01*
X17075Y40541D01*
X17117Y40642D01*
X17132Y40750D01*
X17117Y40859D01*
X17075Y40960D01*
X17009Y41046D01*
X16922Y41113D01*
X16821Y41155D01*
X16713Y41169D01*
D02*
G37*
G36*
X19000Y39642D02*
Y39300D01*
X19342D01*
X19335Y39353D01*
X19295Y39449D01*
X19232Y39532D01*
X19149Y39595D01*
X19053Y39635D01*
X19000Y39642D01*
D02*
G37*
G36*
X18900D02*
X18847Y39635D01*
X18751Y39595D01*
X18668Y39532D01*
X18605Y39449D01*
X18565Y39353D01*
X18558Y39300D01*
X18900D01*
Y39642D01*
D02*
G37*
G36*
X19342Y39200D02*
X19000D01*
Y38858D01*
X19053Y38865D01*
X19149Y38905D01*
X19232Y38968D01*
X19295Y39051D01*
X19335Y39147D01*
X19342Y39200D01*
D02*
G37*
G36*
X18900D02*
X18558D01*
X18565Y39147D01*
X18605Y39051D01*
X18668Y38968D01*
X18751Y38905D01*
X18847Y38865D01*
X18900Y38858D01*
Y39200D01*
D02*
G37*
G36*
X26345Y39645D02*
X25555D01*
Y38855D01*
X26345D01*
Y39645D01*
D02*
G37*
G36*
X24950Y39649D02*
X24847Y39635D01*
X24751Y39595D01*
X24668Y39532D01*
X24605Y39449D01*
X24565Y39353D01*
X24551Y39250D01*
X24565Y39147D01*
X24605Y39051D01*
X24668Y38968D01*
X24751Y38905D01*
X24847Y38865D01*
X24950Y38851D01*
X25053Y38865D01*
X25149Y38905D01*
X25232Y38968D01*
X25295Y39051D01*
X25335Y39147D01*
X25349Y39250D01*
X25335Y39353D01*
X25295Y39449D01*
X25232Y39532D01*
X25149Y39595D01*
X25053Y39635D01*
X24950Y39649D01*
D02*
G37*
G36*
X23950D02*
X23847Y39635D01*
X23751Y39595D01*
X23668Y39532D01*
X23605Y39449D01*
X23565Y39353D01*
X23551Y39250D01*
X23565Y39147D01*
X23605Y39051D01*
X23668Y38968D01*
X23751Y38905D01*
X23847Y38865D01*
X23950Y38851D01*
X24053Y38865D01*
X24149Y38905D01*
X24232Y38968D01*
X24295Y39051D01*
X24335Y39147D01*
X24349Y39250D01*
X24335Y39353D01*
X24295Y39449D01*
X24232Y39532D01*
X24149Y39595D01*
X24053Y39635D01*
X23950Y39649D01*
D02*
G37*
G36*
X22950D02*
X22847Y39635D01*
X22751Y39595D01*
X22668Y39532D01*
X22605Y39449D01*
X22565Y39353D01*
X22551Y39250D01*
X22565Y39147D01*
X22605Y39051D01*
X22668Y38968D01*
X22751Y38905D01*
X22847Y38865D01*
X22950Y38851D01*
X23053Y38865D01*
X23149Y38905D01*
X23232Y38968D01*
X23295Y39051D01*
X23335Y39147D01*
X23349Y39250D01*
X23335Y39353D01*
X23295Y39449D01*
X23232Y39532D01*
X23149Y39595D01*
X23053Y39635D01*
X22950Y39649D01*
D02*
G37*
G36*
X21950D02*
X21847Y39635D01*
X21751Y39595D01*
X21668Y39532D01*
X21605Y39449D01*
X21565Y39353D01*
X21551Y39250D01*
X21565Y39147D01*
X21605Y39051D01*
X21668Y38968D01*
X21751Y38905D01*
X21847Y38865D01*
X21950Y38851D01*
X22053Y38865D01*
X22149Y38905D01*
X22232Y38968D01*
X22295Y39051D01*
X22335Y39147D01*
X22349Y39250D01*
X22335Y39353D01*
X22295Y39449D01*
X22232Y39532D01*
X22149Y39595D01*
X22053Y39635D01*
X21950Y39649D01*
D02*
G37*
G36*
X20950D02*
X20847Y39635D01*
X20751Y39595D01*
X20668Y39532D01*
X20605Y39449D01*
X20565Y39353D01*
X20551Y39250D01*
X20565Y39147D01*
X20605Y39051D01*
X20668Y38968D01*
X20751Y38905D01*
X20847Y38865D01*
X20950Y38851D01*
X21053Y38865D01*
X21149Y38905D01*
X21232Y38968D01*
X21295Y39051D01*
X21335Y39147D01*
X21349Y39250D01*
X21335Y39353D01*
X21295Y39449D01*
X21232Y39532D01*
X21149Y39595D01*
X21053Y39635D01*
X20950Y39649D01*
D02*
G37*
G36*
X19950D02*
X19847Y39635D01*
X19751Y39595D01*
X19668Y39532D01*
X19605Y39449D01*
X19565Y39353D01*
X19551Y39250D01*
X19565Y39147D01*
X19605Y39051D01*
X19668Y38968D01*
X19751Y38905D01*
X19847Y38865D01*
X19950Y38851D01*
X20053Y38865D01*
X20149Y38905D01*
X20232Y38968D01*
X20295Y39051D01*
X20335Y39147D01*
X20349Y39250D01*
X20335Y39353D01*
X20295Y39449D01*
X20232Y39532D01*
X20149Y39595D01*
X20053Y39635D01*
X19950Y39649D01*
D02*
G37*
G36*
X17950D02*
X17847Y39635D01*
X17751Y39595D01*
X17668Y39532D01*
X17605Y39449D01*
X17565Y39353D01*
X17551Y39250D01*
X17565Y39147D01*
X17605Y39051D01*
X17668Y38968D01*
X17751Y38905D01*
X17847Y38865D01*
X17950Y38851D01*
X18053Y38865D01*
X18149Y38905D01*
X18232Y38968D01*
X18295Y39051D01*
X18335Y39147D01*
X18349Y39250D01*
X18335Y39353D01*
X18295Y39449D01*
X18232Y39532D01*
X18149Y39595D01*
X18053Y39635D01*
X17950Y39649D01*
D02*
G37*
G36*
X16950D02*
X16847Y39635D01*
X16751Y39595D01*
X16668Y39532D01*
X16605Y39449D01*
X16565Y39353D01*
X16551Y39250D01*
X16565Y39147D01*
X16605Y39051D01*
X16668Y38968D01*
X16751Y38905D01*
X16847Y38865D01*
X16950Y38851D01*
X17053Y38865D01*
X17149Y38905D01*
X17232Y38968D01*
X17295Y39051D01*
X17335Y39147D01*
X17349Y39250D01*
X17335Y39353D01*
X17295Y39449D01*
X17232Y39532D01*
X17149Y39595D01*
X17053Y39635D01*
X16950Y39649D01*
D02*
G37*
G36*
X15950D02*
X15847Y39635D01*
X15751Y39595D01*
X15668Y39532D01*
X15605Y39449D01*
X15565Y39353D01*
X15551Y39250D01*
X15565Y39147D01*
X15605Y39051D01*
X15668Y38968D01*
X15751Y38905D01*
X15847Y38865D01*
X15950Y38851D01*
X16053Y38865D01*
X16149Y38905D01*
X16232Y38968D01*
X16295Y39051D01*
X16335Y39147D01*
X16349Y39250D01*
X16335Y39353D01*
X16295Y39449D01*
X16232Y39532D01*
X16149Y39595D01*
X16053Y39635D01*
X15950Y39649D01*
D02*
G37*
G36*
X14950D02*
X14847Y39635D01*
X14751Y39595D01*
X14668Y39532D01*
X14605Y39449D01*
X14565Y39353D01*
X14551Y39250D01*
X14565Y39147D01*
X14605Y39051D01*
X14668Y38968D01*
X14751Y38905D01*
X14847Y38865D01*
X14950Y38851D01*
X15053Y38865D01*
X15149Y38905D01*
X15232Y38968D01*
X15295Y39051D01*
X15335Y39147D01*
X15349Y39250D01*
X15335Y39353D01*
X15295Y39449D01*
X15232Y39532D01*
X15149Y39595D01*
X15053Y39635D01*
X14950Y39649D01*
D02*
G37*
%LPD*%
D12*
X14351Y40750D02*
D03*
X26949D02*
D03*
X15138D02*
D03*
X16713D02*
D03*
X19075D02*
D03*
X19863D02*
D03*
X24587D02*
D03*
X26162D02*
D03*
X21437D02*
D03*
X20650D02*
D03*
D13*
X25950Y39250D02*
D03*
X16950Y48250D02*
D03*
D14*
X24950Y39250D02*
D03*
X23950D02*
D03*
X22950D02*
D03*
X21950D02*
D03*
X20950D02*
D03*
X19950D02*
D03*
X18950D02*
D03*
X17950D02*
D03*
X16950D02*
D03*
X15950D02*
D03*
X14950D02*
D03*
X23950Y48250D02*
D03*
X22950D02*
D03*
X21950D02*
D03*
X20950D02*
D03*
X19950D02*
D03*
X18950D02*
D03*
X17950D02*
D03*
M02*
