G04 Layer_Physical_Order=1*
G04 Layer_Color=255*
%FSLAX24Y24*%
%MOIN*%
G70*
G01*
G75*
%ADD10C,0.0400*%
%ADD11C,0.0160*%
%ADD12C,0.0630*%
%ADD13R,0.0591X0.0591*%
%ADD14C,0.0591*%
G36*
X31350Y36550D02*
X10000D01*
Y50000D01*
X31350D01*
Y36550D01*
D02*
G37*
%LPC*%
G36*
X23950Y48649D02*
X23847Y48635D01*
X23751Y48595D01*
X23695Y48553D01*
X23205D01*
X23149Y48595D01*
X23053Y48635D01*
X22950Y48649D01*
X22847Y48635D01*
X22751Y48595D01*
X22695Y48553D01*
X22205D01*
X22149Y48595D01*
X22053Y48635D01*
X21950Y48649D01*
X21847Y48635D01*
X21751Y48595D01*
X21695Y48553D01*
X21205D01*
X21149Y48595D01*
X21053Y48635D01*
X20950Y48649D01*
X20847Y48635D01*
X20751Y48595D01*
X20668Y48532D01*
X20605Y48449D01*
X20565Y48353D01*
X20551Y48250D01*
X20565Y48147D01*
X20605Y48051D01*
X20647Y47995D01*
Y43450D01*
X20658Y43372D01*
X20688Y43299D01*
X20736Y43236D01*
X21135Y42837D01*
Y41038D01*
X21075Y40960D01*
X21069Y40945D01*
X21019D01*
X21012Y40960D01*
X20946Y41046D01*
X20859Y41113D01*
X20758Y41155D01*
X20650Y41169D01*
X20542Y41155D01*
X20441Y41113D01*
X20354Y41046D01*
X20288Y40960D01*
X20281Y40945D01*
X20231D01*
X20225Y40960D01*
X20159Y41046D01*
X20072Y41113D01*
X19971Y41155D01*
X19863Y41169D01*
X19754Y41155D01*
X19653Y41113D01*
X19567Y41046D01*
X19500Y40960D01*
X19494Y40945D01*
X19444D01*
X19438Y40960D01*
X19378Y41038D01*
Y42603D01*
X19367Y42681D01*
X19337Y42754D01*
X19289Y42817D01*
X18303Y43803D01*
Y47947D01*
X18695D01*
X18751Y47905D01*
X18847Y47865D01*
X18950Y47851D01*
X19053Y47865D01*
X19149Y47905D01*
X19205Y47947D01*
X19695D01*
X19751Y47905D01*
X19847Y47865D01*
X19950Y47851D01*
X20053Y47865D01*
X20149Y47905D01*
X20232Y47968D01*
X20295Y48051D01*
X20335Y48147D01*
X20349Y48250D01*
X20335Y48353D01*
X20295Y48449D01*
X20232Y48532D01*
X20149Y48595D01*
X20053Y48635D01*
X19950Y48649D01*
X19847Y48635D01*
X19751Y48595D01*
X19695Y48553D01*
X19205D01*
X19149Y48595D01*
X19053Y48635D01*
X18950Y48649D01*
X18847Y48635D01*
X18751Y48595D01*
X18695Y48553D01*
X18205D01*
X18149Y48595D01*
X18053Y48635D01*
X17950Y48649D01*
X17847Y48635D01*
X17751Y48595D01*
X17695Y48553D01*
X17345D01*
Y48645D01*
X16555D01*
Y47855D01*
X17345D01*
Y47947D01*
X17695D01*
X17697Y47946D01*
Y43678D01*
X17708Y43600D01*
X17738Y43527D01*
X17786Y43464D01*
X18773Y42477D01*
Y41038D01*
X18713Y40960D01*
X18671Y40859D01*
X18657Y40750D01*
X18671Y40642D01*
X18713Y40541D01*
X18779Y40454D01*
X18866Y40388D01*
X18967Y40346D01*
X19075Y40332D01*
X19184Y40346D01*
X19284Y40388D01*
X19371Y40454D01*
X19438Y40541D01*
X19444Y40556D01*
X19494D01*
X19500Y40541D01*
X19549Y40477D01*
X18736Y39664D01*
X18688Y39601D01*
X18658Y39528D01*
X18656Y39516D01*
X18605Y39449D01*
X18565Y39353D01*
X18551Y39250D01*
X18565Y39147D01*
X18605Y39051D01*
X18668Y38968D01*
X18751Y38905D01*
X18847Y38865D01*
X18950Y38851D01*
X19053Y38865D01*
X19149Y38905D01*
X19232Y38968D01*
X19295Y39051D01*
X19335Y39147D01*
X19349Y39250D01*
X19335Y39353D01*
X19319Y39391D01*
X19514Y39586D01*
X19560Y39567D01*
Y39337D01*
X19561Y39327D01*
X19551Y39250D01*
X19565Y39147D01*
X19605Y39051D01*
X19668Y38968D01*
X19751Y38905D01*
X19847Y38865D01*
X19950Y38851D01*
X20053Y38865D01*
X20149Y38905D01*
X20232Y38968D01*
X20295Y39051D01*
X20335Y39147D01*
X20349Y39250D01*
X20335Y39353D01*
X20295Y39449D01*
X20232Y39532D01*
X20165Y39583D01*
Y40363D01*
Y40463D01*
X20225Y40541D01*
X20231Y40556D01*
X20281D01*
X20288Y40541D01*
X20354Y40454D01*
X20370Y40442D01*
X20388Y40399D01*
X20436Y40336D01*
X20647Y40125D01*
Y39505D01*
X20605Y39449D01*
X20565Y39353D01*
X20551Y39250D01*
X20565Y39147D01*
X20605Y39051D01*
X20668Y38968D01*
X20751Y38905D01*
X20847Y38865D01*
X20950Y38851D01*
X21053Y38865D01*
X21149Y38905D01*
X21232Y38968D01*
X21295Y39051D01*
X21335Y39147D01*
X21349Y39250D01*
X21335Y39353D01*
X21326Y39376D01*
X21368Y39404D01*
X21556Y39216D01*
X21565Y39147D01*
X21605Y39051D01*
X21668Y38968D01*
X21751Y38905D01*
X21847Y38865D01*
X21950Y38851D01*
X22053Y38865D01*
X22149Y38905D01*
X22232Y38968D01*
X22295Y39051D01*
X22335Y39147D01*
X22349Y39250D01*
X22335Y39353D01*
X22295Y39449D01*
X22232Y39532D01*
X22149Y39595D01*
X22053Y39635D01*
X21984Y39644D01*
X21333Y40295D01*
X21356Y40343D01*
X21437Y40332D01*
X21546Y40346D01*
X21647Y40388D01*
X21733Y40454D01*
X21800Y40541D01*
X21842Y40642D01*
X21856Y40750D01*
X21842Y40859D01*
X21800Y40960D01*
X21740Y41038D01*
Y42963D01*
X21730Y43041D01*
X21699Y43114D01*
X21651Y43177D01*
X21651Y43177D01*
X21253Y43575D01*
Y47947D01*
X21695D01*
X21751Y47905D01*
X21847Y47865D01*
X21950Y47851D01*
X22053Y47865D01*
X22149Y47905D01*
X22205Y47947D01*
X22695D01*
X22751Y47905D01*
X22847Y47865D01*
X22950Y47851D01*
X23053Y47865D01*
X23149Y47905D01*
X23205Y47947D01*
X23695D01*
X23751Y47905D01*
X23847Y47865D01*
X23950Y47851D01*
X24053Y47865D01*
X24149Y47905D01*
X24232Y47968D01*
X24295Y48051D01*
X24335Y48147D01*
X24349Y48250D01*
X24335Y48353D01*
X24295Y48449D01*
X24232Y48532D01*
X24149Y48595D01*
X24053Y48635D01*
X23950Y48649D01*
D02*
G37*
G36*
X27210Y48860D02*
X25690D01*
Y47740D01*
X27210D01*
Y48860D01*
D02*
G37*
G36*
X16210D02*
X14890D01*
Y47740D01*
X16210D01*
Y48860D01*
D02*
G37*
G36*
X26949Y41169D02*
X26841Y41155D01*
X26740Y41113D01*
X26662Y41053D01*
X26449D01*
X26371Y41113D01*
X26270Y41155D01*
X26162Y41169D01*
X26053Y41155D01*
X25953Y41113D01*
X25866Y41046D01*
X25799Y40960D01*
X25758Y40859D01*
X25745Y40761D01*
X25736Y40753D01*
X25736Y40753D01*
X24736Y39753D01*
X24688Y39690D01*
X24658Y39617D01*
X24647Y39539D01*
Y39505D01*
X24605Y39449D01*
X24565Y39353D01*
X24551Y39250D01*
X24565Y39147D01*
X24605Y39051D01*
X24668Y38968D01*
X24751Y38905D01*
X24847Y38865D01*
X24950Y38851D01*
X25053Y38865D01*
X25149Y38905D01*
X25232Y38968D01*
X25295Y39051D01*
X25335Y39147D01*
X25349Y39250D01*
X25335Y39353D01*
X25295Y39449D01*
X25292Y39453D01*
X25485Y39646D01*
X25505Y39646D01*
X25555Y39596D01*
Y38855D01*
X26345D01*
Y39645D01*
X26253D01*
Y40344D01*
X26270Y40346D01*
X26371Y40388D01*
X26449Y40448D01*
X26662D01*
X26740Y40388D01*
X26841Y40346D01*
X26949Y40332D01*
X27058Y40346D01*
X27158Y40388D01*
X27245Y40454D01*
X27312Y40541D01*
X27353Y40642D01*
X27368Y40750D01*
X27353Y40859D01*
X27312Y40960D01*
X27245Y41046D01*
X27158Y41113D01*
X27058Y41155D01*
X26949Y41169D01*
D02*
G37*
G36*
X15138D02*
X15030Y41155D01*
X14929Y41113D01*
X14851Y41053D01*
X14638D01*
X14560Y41113D01*
X14459Y41155D01*
X14351Y41169D01*
X14242Y41155D01*
X14142Y41113D01*
X14055Y41046D01*
X13988Y40960D01*
X13946Y40859D01*
X13932Y40750D01*
X13946Y40642D01*
X13988Y40541D01*
X14055Y40454D01*
X14142Y40388D01*
X14242Y40346D01*
X14351Y40332D01*
X14459Y40346D01*
X14560Y40388D01*
X14638Y40448D01*
X14836D01*
Y39630D01*
X14751Y39595D01*
X14668Y39532D01*
X14605Y39449D01*
X14565Y39353D01*
X14551Y39250D01*
X14565Y39147D01*
X14605Y39051D01*
X14668Y38968D01*
X14751Y38905D01*
X14847Y38865D01*
X14950Y38851D01*
X15053Y38865D01*
X15149Y38905D01*
X15232Y38968D01*
X15295Y39051D01*
X15335Y39147D01*
X15344Y39216D01*
X15352Y39224D01*
X15400Y39287D01*
X15430Y39360D01*
X15441Y39438D01*
X15441Y39438D01*
Y39955D01*
X15487Y39974D01*
X15647Y39813D01*
Y39505D01*
X15605Y39449D01*
X15565Y39353D01*
X15551Y39250D01*
X15565Y39147D01*
X15605Y39051D01*
X15668Y38968D01*
X15751Y38905D01*
X15847Y38865D01*
X15950Y38851D01*
X16053Y38865D01*
X16149Y38905D01*
X16232Y38968D01*
X16295Y39051D01*
X16335Y39147D01*
X16349Y39250D01*
X16335Y39353D01*
X16295Y39449D01*
X16253Y39505D01*
Y39939D01*
X16242Y40017D01*
X16212Y40090D01*
X16164Y40153D01*
X15555Y40761D01*
X15542Y40859D01*
X15501Y40960D01*
X15434Y41046D01*
X15347Y41113D01*
X15247Y41155D01*
X15138Y41169D01*
D02*
G37*
G36*
X24587D02*
X24479Y41155D01*
X24378Y41113D01*
X24300Y41053D01*
X24022D01*
X23944Y41043D01*
X23871Y41012D01*
X23809Y40964D01*
X22736Y39892D01*
X22688Y39829D01*
X22658Y39756D01*
X22647Y39678D01*
Y39505D01*
X22605Y39449D01*
X22565Y39353D01*
X22551Y39250D01*
X22565Y39147D01*
X22605Y39051D01*
X22668Y38968D01*
X22751Y38905D01*
X22847Y38865D01*
X22950Y38851D01*
X23053Y38865D01*
X23149Y38905D01*
X23232Y38968D01*
X23295Y39051D01*
X23335Y39147D01*
X23349Y39250D01*
X23335Y39353D01*
X23295Y39449D01*
X23253Y39505D01*
Y39553D01*
X23601Y39901D01*
X23647Y39882D01*
Y39505D01*
X23605Y39449D01*
X23565Y39353D01*
X23551Y39250D01*
X23565Y39147D01*
X23605Y39051D01*
X23668Y38968D01*
X23751Y38905D01*
X23847Y38865D01*
X23950Y38851D01*
X24053Y38865D01*
X24149Y38905D01*
X24232Y38968D01*
X24295Y39051D01*
X24335Y39147D01*
X24349Y39250D01*
X24335Y39353D01*
X24295Y39449D01*
X24253Y39505D01*
Y39988D01*
X24598Y40333D01*
X24695Y40346D01*
X24796Y40388D01*
X24883Y40454D01*
X24949Y40541D01*
X24991Y40642D01*
X25006Y40750D01*
X24991Y40859D01*
X24949Y40960D01*
X24883Y41046D01*
X24796Y41113D01*
X24695Y41155D01*
X24587Y41169D01*
D02*
G37*
G36*
X16713D02*
X16605Y41155D01*
X16504Y41113D01*
X16417Y41046D01*
X16351Y40960D01*
X16309Y40859D01*
X16294Y40750D01*
X16309Y40642D01*
X16351Y40541D01*
X16417Y40454D01*
X16504Y40388D01*
X16605Y40346D01*
X16647Y40340D01*
Y39505D01*
X16605Y39449D01*
X16565Y39353D01*
X16551Y39250D01*
X16565Y39147D01*
X16605Y39051D01*
X16668Y38968D01*
X16751Y38905D01*
X16847Y38865D01*
X16950Y38851D01*
X17053Y38865D01*
X17149Y38905D01*
X17232Y38968D01*
X17295Y39051D01*
X17335Y39147D01*
X17349Y39250D01*
X17335Y39353D01*
X17295Y39449D01*
X17253Y39505D01*
Y39718D01*
X17299Y39737D01*
X17599Y39436D01*
X17565Y39353D01*
X17551Y39250D01*
X17565Y39147D01*
X17605Y39051D01*
X17668Y38968D01*
X17751Y38905D01*
X17847Y38865D01*
X17950Y38851D01*
X18053Y38865D01*
X18149Y38905D01*
X18232Y38968D01*
X18295Y39051D01*
X18335Y39147D01*
X18349Y39250D01*
X18335Y39353D01*
X18295Y39449D01*
X18253Y39505D01*
Y39513D01*
X18253Y39513D01*
X18242Y39592D01*
X18212Y39665D01*
X18164Y39727D01*
X18164Y39727D01*
X17164Y40727D01*
X17130Y40761D01*
X17117Y40859D01*
X17075Y40960D01*
X17009Y41046D01*
X16922Y41113D01*
X16821Y41155D01*
X16713Y41169D01*
D02*
G37*
G36*
X27060Y38660D02*
X25540D01*
Y37540D01*
X27060D01*
Y38660D01*
D02*
G37*
G36*
X24310D02*
X22790D01*
Y37540D01*
X24310D01*
Y38660D01*
D02*
G37*
G36*
X22410D02*
X20890D01*
Y37540D01*
X22410D01*
Y38660D01*
D02*
G37*
G36*
X20509D02*
X18390D01*
Y37540D01*
X20509D01*
Y38660D01*
D02*
G37*
G36*
X18260D02*
X16940D01*
Y37540D01*
X18260D01*
Y38660D01*
D02*
G37*
G36*
X15610D02*
X14290D01*
Y37540D01*
X15610D01*
Y38660D01*
D02*
G37*
G36*
X11510Y42758D02*
X10390D01*
Y36740D01*
X11510D01*
Y42758D01*
D02*
G37*
%LPD*%
D10*
X21437Y40750D02*
Y42963D01*
X20950Y43450D02*
X21437Y42963D01*
X20950Y43450D02*
Y48250D01*
X18000Y43678D02*
Y48200D01*
X17950Y48250D02*
X18000Y48200D01*
X16950Y48250D02*
X17950D01*
X18000Y43678D02*
X19075Y42603D01*
Y40750D02*
Y42603D01*
X18950Y39450D02*
X19863Y40363D01*
X18950Y39250D02*
Y39450D01*
X24022Y40750D02*
X24587D01*
X22950Y39678D02*
X24022Y40750D01*
X22950Y39250D02*
Y39678D01*
X17950Y48250D02*
X18950D01*
X19950D01*
X20950D02*
X21950D01*
X22950D01*
X23950D01*
X20650Y40550D02*
Y40750D01*
X25950Y39250D02*
Y40539D01*
X26162Y40750D02*
X26949D01*
X17950Y39250D02*
Y39513D01*
X14351Y40750D02*
X15138D01*
Y39438D02*
Y40750D01*
X14950Y39250D02*
X15138Y39438D01*
X19863Y39337D02*
Y40363D01*
Y40750D01*
X20950Y39250D02*
Y40250D01*
X20650Y40550D02*
X20950Y40250D01*
X21950Y39250D01*
X23950D02*
Y40113D01*
X24587Y40750D01*
X24950Y39250D02*
Y39539D01*
X25950Y40539D01*
X26162Y40750D01*
X16950Y39250D02*
Y40513D01*
X16713Y40750D02*
X16950Y40513D01*
X17950Y39513D01*
X15950Y39250D02*
Y39939D01*
X15138Y40750D02*
X15950Y39939D01*
D11*
X11250Y37000D02*
X10650D01*
X11250Y37400D01*
X10650D01*
X10850Y37600D02*
X11150D01*
X11250Y37700D01*
Y38000D01*
X10850D01*
X10750Y38300D02*
X10850D01*
Y38200D01*
Y38400D01*
Y38300D01*
X11150D01*
X11250Y38400D01*
X10850Y38699D02*
X11150D01*
X11250Y38799D01*
Y39099D01*
X10850D01*
X10650Y39299D02*
X11250D01*
Y39599D01*
X11150Y39699D01*
X11050D01*
X10950D01*
X10850Y39599D01*
Y39299D01*
X11250Y40199D02*
Y39999D01*
X11150Y39899D01*
X10950D01*
X10850Y39999D01*
Y40199D01*
X10950Y40299D01*
X11050D01*
Y39899D01*
X10650Y41499D02*
X10750Y41299D01*
X10950Y41099D01*
X11150D01*
X11250Y41199D01*
Y41399D01*
X11150Y41499D01*
X11050D01*
X10950Y41399D01*
Y41099D01*
X11250Y41698D02*
X10650D01*
Y41998D01*
X10750Y42098D01*
X10950D01*
X11050Y41998D01*
Y41698D01*
X11250Y42298D02*
Y42498D01*
Y42398D01*
X10650D01*
X10750Y42298D01*
X15150Y48000D02*
Y48400D01*
X15350Y48600D01*
X15550Y48400D01*
Y48000D01*
Y48300D01*
X15150D01*
X15750Y48000D02*
X15950D01*
X15850D01*
Y48600D01*
X15750Y48500D01*
X25950Y48000D02*
Y48400D01*
X26150Y48600D01*
X26350Y48400D01*
Y48000D01*
Y48300D01*
X25950D01*
X26950Y48000D02*
X26550D01*
X26950Y48400D01*
Y48500D01*
X26850Y48600D01*
X26650D01*
X26550Y48500D01*
X14950Y38400D02*
X14550D01*
Y38100D01*
X14750D01*
X14550D01*
Y37800D01*
X15150D02*
X15350D01*
X15250D01*
Y38400D01*
X15150Y38300D01*
X17600D02*
X17500Y38400D01*
X17300D01*
X17200Y38300D01*
Y37900D01*
X17300Y37800D01*
X17500D01*
X17600Y37900D01*
Y38100D01*
X17400D01*
X17800Y37800D02*
X18000D01*
X17900D01*
Y38400D01*
X17800Y38300D01*
X19050D02*
X18950Y38400D01*
X18750D01*
X18650Y38300D01*
Y37900D01*
X18750Y37800D01*
X18950D01*
X19050Y37900D01*
Y38100D01*
X18850D01*
X19250Y37800D02*
Y38400D01*
X19650Y37800D01*
Y38400D01*
X19850D02*
Y37800D01*
X20150D01*
X20249Y37900D01*
Y38300D01*
X20150Y38400D01*
X19850D01*
X21550D02*
X21150D01*
Y38100D01*
X21350D01*
X21150D01*
Y37800D01*
X22150D02*
X21750D01*
X22150Y38200D01*
Y38300D01*
X22050Y38400D01*
X21850D01*
X21750Y38300D01*
X23450D02*
X23350Y38400D01*
X23150D01*
X23050Y38300D01*
Y37900D01*
X23150Y37800D01*
X23350D01*
X23450Y37900D01*
Y38100D01*
X23250D01*
X24050Y37800D02*
X23650D01*
X24050Y38200D01*
Y38300D01*
X23950Y38400D01*
X23750D01*
X23650Y38300D01*
X26200Y38400D02*
X25800D01*
Y38100D01*
X26000D01*
X25800D01*
Y37800D01*
X26400Y38300D02*
X26500Y38400D01*
X26700D01*
X26800Y38300D01*
Y38200D01*
X26700Y38100D01*
X26600D01*
X26700D01*
X26800Y38000D01*
Y37900D01*
X26700Y37800D01*
X26500D01*
X26400Y37900D01*
D12*
X14351Y40750D02*
D03*
X26949D02*
D03*
X15138D02*
D03*
X16713D02*
D03*
X19075D02*
D03*
X19863D02*
D03*
X24587D02*
D03*
X26162D02*
D03*
X21437D02*
D03*
X20650D02*
D03*
D13*
X25950Y39250D02*
D03*
X16950Y48250D02*
D03*
D14*
X24950Y39250D02*
D03*
X23950D02*
D03*
X22950D02*
D03*
X21950D02*
D03*
X20950D02*
D03*
X19950D02*
D03*
X18950D02*
D03*
X17950D02*
D03*
X16950D02*
D03*
X15950D02*
D03*
X14950D02*
D03*
X23950Y48250D02*
D03*
X22950D02*
D03*
X21950D02*
D03*
X20950D02*
D03*
X19950D02*
D03*
X18950D02*
D03*
X17950D02*
D03*
M02*
