M48
;Layer_Color=9474304
;FILE_FORMAT=2:4
INCH,LZ
;TYPE=PLATED
T1F00S00C0.0315
T2F00S00C0.0354
%
T01
X014351Y04075
X015138
X016713
X019075
X019863
X02065
X021437
X024587
X026162
X026949
T02
X01495Y03925
X01595
X01695
X01795
X01895
X01995
X02095
X02195
X02295
X02395
X02495
X02595
X02395Y04825
X02295
X02195
X02095
X01995
X01895
X01795
X01695
M30
